<?xml version="1.0" encoding="utf-8"?>
<!-- Generator: Adobe Illustrator 23.0.1, SVG Export Plug-In . SVG Version: 6.00 Build 0)  -->
<svg version="1.1" id="Layer_1" xmlns="http://www.w3.org/2000/svg" xmlns:xlink="http://www.w3.org/1999/xlink" x="0px" y="0px"
	 viewBox="0 0 485 138" style="enable-background:new 0 0 485 138;" xml:space="preserve">
<style type="text/css">
	.st0{fill:#005B97;}
	.st1{enable-background:new    ;}
	.st2{fill:#FFFFFF;}
	.st3{font-family:'TrajanSansPro-Regular';}
	.st4{font-size:19px;}
</style>
<g>
	<rect y="-1" class="st0" width="485" height="138.4"/>
</g>
<g>
	<rect x="13.3" y="27.6" class="st0" width="94.6" height="94.6"/>
</g>
<g class="st1">
	<path class="st2" d="M66.8,31.7c-0.1,0.5-0.1,1-0.1,1.5c0,0.4,0,0.9,0,1.5c0,1.7,0.3,3.1,0.9,4.3c0.6,1.1,1.4,2.1,2.4,2.7
		c1,0.7,2.1,1.2,3.4,1.5c1.3,0.3,2.5,0.4,3.8,0.4c2.2,0,4.4-0.5,6.7-1.6c2.3-1.1,4.4-2.6,6.2-4.5c1.9-1.9,3.4-4.1,4.6-6.6
		c1.2-2.5,1.8-5.2,1.8-7.9c0-3.4-0.9-5.7-2.8-6.9c-1.9-1.2-4.4-1.8-7.6-1.8c-3.7,0-7.7,0.9-12.1,2.6c-4.4,1.8-8.8,4.2-13.4,7.3
		c-4.5,3.1-8.9,6.8-13.1,11c-4.2,4.2-7.9,8.8-11.2,13.8c-3.3,5-5.9,10.2-7.9,15.6c-2,5.5-2.9,11-2.9,16.6c0,2.3,0.3,4.6,0.9,6.8
		c0.6,2.3,1.5,4.3,2.7,6.2s2.8,3.3,4.8,4.4c2,1.1,4.3,1.6,7.1,1.6c4,0,7.8-0.9,11.4-2.7c3.6-1.8,6.8-4.2,9.5-7.1
		c2.7-2.9,4.9-6.2,6.5-9.8c1.6-3.6,2.4-7.2,2.4-10.8c0-3.3-1-5.7-2.9-7.4c-1.9-1.7-4.5-2.6-7.7-2.6L60.1,58c5.1,0,8.9,1,11.4,3
		c2.5,2,3.7,5.5,3.7,10.4c0,2.8-0.8,6-2.3,9.5c-1.5,3.5-3.7,6.8-6.6,9.8c-2.9,3.1-6.6,5.6-10.9,7.6c-4.4,2-9.3,3.1-14.9,3.1
		c-4.2,0-7.8-0.7-10.7-2.2c-2.9-1.5-5.2-3.3-7-5.5c-1.8-2.2-3.1-4.6-3.8-7.1c-0.8-2.6-1.2-4.9-1.2-7.1c0-5.1,1.1-10.4,3.3-15.7
		c2.2-5.3,5.1-10.5,8.7-15.4c3.6-5,7.8-9.6,12.5-14c4.7-4.4,9.6-8.1,14.6-11.3c5-3.2,10-5.8,15-7.6c5-1.9,9.6-2.8,13.7-2.8
		c5.1,0,8.9,1.1,11.5,3.2c2.5,2.1,3.8,5.2,3.8,9.3c0,2.8-0.7,5.5-2,7.9c-1.3,2.4-3.1,4.5-5.4,6.3c-2.2,1.8-4.8,3.1-7.6,4.1
		C83,44.5,80,45,77,45c-3.2,0-5.9-0.8-8.2-2.3c-2.3-1.5-3.5-4.1-3.7-7.7c0-0.5,0-1,0-1.6c0-0.7,0-1.2,0.1-1.7H66.8z"/>
</g>
<g class="st1">
	<path class="st2" d="M82.8,63.7c-0.1,0.5-0.1,1-0.1,1.5c0,0.4,0,0.9,0,1.5c0,1.7,0.3,3.1,0.9,4.3c0.6,1.1,1.4,2.1,2.4,2.7
		c1,0.7,2.1,1.2,3.4,1.5c1.3,0.3,2.5,0.4,3.8,0.4c2.2,0,4.4-0.5,6.7-1.6c2.3-1.1,4.4-2.6,6.2-4.5c1.9-1.9,3.4-4.1,4.6-6.6
		c1.2-2.5,1.8-5.2,1.8-7.9c0-3.4-0.9-5.7-2.8-6.9c-1.9-1.2-4.4-1.8-7.6-1.8c-3.7,0-7.7,0.9-12.1,2.6c-4.4,1.8-8.8,4.2-13.4,7.3
		c-4.5,3.1-8.9,6.8-13.1,11c-4.2,4.2-7.9,8.8-11.2,13.8c-3.3,5-5.9,10.2-7.9,15.6c-2,5.5-2.9,11-2.9,16.6c0,2.3,0.3,4.6,0.9,6.8
		c0.6,2.3,1.5,4.3,2.7,6.2s2.8,3.3,4.8,4.4c2,1.1,4.3,1.6,7.1,1.6c4,0,7.8-0.9,11.4-2.7c3.6-1.8,6.8-4.2,9.5-7.1
		c2.7-2.9,4.9-6.2,6.5-9.8c1.6-3.6,2.4-7.2,2.4-10.8c0-3.3-1-5.7-2.9-7.4c-1.9-1.7-4.5-2.6-7.7-2.6L76.1,90c5.1,0,8.9,1,11.4,3
		c2.5,2,3.7,5.5,3.7,10.4c0,2.8-0.8,6-2.3,9.5c-1.5,3.5-3.7,6.8-6.6,9.8c-2.9,3.1-6.6,5.6-10.9,7.6c-4.4,2-9.3,3.1-14.9,3.1
		c-4.2,0-7.8-0.7-10.7-2.2c-2.9-1.5-5.2-3.3-7-5.5c-1.8-2.2-3.1-4.6-3.8-7.1c-0.8-2.6-1.2-4.9-1.2-7.1c0-5.1,1.1-10.4,3.3-15.7
		c2.2-5.3,5.1-10.5,8.7-15.4c3.6-5,7.8-9.6,12.5-14c4.7-4.4,9.6-8.1,14.6-11.3c5-3.2,10-5.8,15-7.6c5-1.9,9.6-2.8,13.7-2.8
		c5.1,0,8.9,1.1,11.5,3.2c2.5,2.1,3.8,5.2,3.8,9.3c0,2.8-0.7,5.5-2,7.9c-1.3,2.4-3.1,4.5-5.4,6.3c-2.2,1.8-4.8,3.1-7.6,4.1
		C99,76.5,96.1,77,93,77c-3.2,0-5.9-0.8-8.2-2.3c-2.3-1.5-3.5-4.1-3.7-7.7c0-0.5,0-1,0-1.6c0-0.7,0-1.2,0.1-1.7H82.8z"/>
</g>
<g>
	<g class="st1">
		<path class="st2" d="M146.9,91.7c-2.9-2.7-3.8-6.4-3.8-9.1c0-2.3,0.6-5.7,3.3-8.4c2-1.9,5-3.4,9.6-3.4c4.2,0,6.8,1,8,1.3
			c-0.2,0.6-0.4,1.9-0.4,2.9c-1.2-1.3-4-2.5-7.8-2.5c-3.8,0-5.8,1.3-7,2.5c-2,2-2.7,4.6-2.7,7.2c0,5,3,10.8,11,10.8
			c2.6,0,5.2-0.5,6.7-1.6c-0.2,0.7-0.4,1.9-0.5,2.6c-1.2,0.5-3.9,1.1-6.5,1.1C152.6,95,149.4,93.9,146.9,91.7z"/>
		<path class="st2" d="M172,87.8c-0.1,0-0.1,0-0.1,0.1c-0.8,2.3-2,5.4-2.4,6.7c-0.3-0.1-0.6-0.1-1.2-0.1c-0.7,0-1.3,0.1-1.6,0.1
			c0.7-1.4,1.7-3.7,2.9-6.4l5.3-12.8c0.4-0.8,0.5-1.1,0.7-1.1c0.1,0,0.3,0.2,0.7,1.1c0.3,0.7,3,6.6,5.5,11.9
			c1.3,2.8,2.8,6.2,3.5,7.3c-0.5,0-1.1-0.1-1.4-0.1c-0.7,0-1.6,0-2,0.1c-0.4-1.2-1.9-4.6-2.7-6.7c0-0.1,0-0.1-0.1-0.1H172z
			 M178.4,86.2C178.5,86.2,178.5,86.1,178.4,86.2l-3.1-7.5l-2.9,7.4c0,0.1,0,0.1,0.1,0.1H178.4z"/>
		<path class="st2" d="M189.4,82.3c0-3.8-0.2-6.6-0.3-7.6c0.4,0,0.9,0.1,1.3,0.1c1.1,0,2.2-0.1,3.9-0.1c4.7,0,5.9,2.6,5.9,4.6
			c0,2.2-1.4,3.6-2.6,4.2c2.4,0.7,4.5,2.3,4.5,5.3c0,3.1-2.4,6-7.2,6c-1.9,0-3.3-0.2-3.9-0.2c-0.5,0-1.3,0-1.7,0
			c0.1-1.1,0.2-4.2,0.2-7.6V82.3z M191.9,82.9c0,0.1,0,0.1,0.1,0.1c0.5,0,2.7,0.1,3.1,0.1c0.5,0,0.7,0,1.1-0.2
			c1.1-0.7,1.6-1.9,1.6-3c0-2.2-1.4-3.6-4.1-3.6c-0.9,0-1.5,0.1-1.7,0.2c-0.1,0-0.1,0.1-0.1,0.1V82.9z M197.5,85.7
			c-0.9-0.7-2-0.9-3.3-1c-0.7-0.1-2.1-0.1-2.3,0c-0.1,0-0.1,0.1-0.1,0.1v2.2c0,4.3,0.1,5.5,0.1,5.6c0.3,0.2,1.3,0.6,2.9,0.6
			c2.2,0,4.4-1.3,4.4-4.1C199.3,87.9,198.9,86.7,197.5,85.7z"/>
		<path class="st2" d="M205.7,84.8c0-5.5,3.8-10.5,10.8-10.5c6.3,0,10.4,4.3,10.4,9.8c0,6.1-4,10.8-10.7,10.8
			C208.9,95,205.7,89.5,205.7,84.8z M224,84.8c0-5.3-3.4-8.9-8-8.9c-4.6,0-7.4,3.4-7.4,8.3c0,5.4,3.3,9.1,8,9.1
			C219.8,93.3,224,91.2,224,84.8z"/>
		<path class="st2" d="M229.1,74.5c0.7,0.2,1.7,0.2,4.1,0.2h8.9c1.6,0,3.6-0.1,4.1-0.2c-0.2,0.7-0.3,1.8-0.3,2.5
			c-0.4-0.3-1.2-0.4-3-0.5c-1.1-0.1-2.3-0.1-4.3-0.1v10.4c0,3.3,0.1,6.8,0.2,7.8c-0.3-0.1-0.8-0.1-1.2-0.1c-0.7,0-1.5,0-1.8,0.1
			c0.1-0.9,0.2-4.2,0.2-7.7V76.4c-1.3,0-2,0-3.8,0.1c-1.9,0.1-2.9,0.2-3.7,0.4C228.8,76.4,229,75.1,229.1,74.5z"/>
		<path class="st2" d="M260.4,91.7c-2.9-2.7-3.8-6.4-3.8-9.1c0-2.3,0.6-5.7,3.3-8.4c2-1.9,5-3.4,9.6-3.4c4.2,0,6.8,1,8,1.3
			c-0.2,0.6-0.4,1.9-0.4,2.9c-1.2-1.3-4-2.5-7.8-2.5c-3.8,0-5.8,1.3-7,2.5c-2,2-2.7,4.6-2.7,7.2c0,5,3,10.8,11,10.8
			c2.6,0,5.2-0.5,6.7-1.6c-0.2,0.7-0.4,1.9-0.5,2.6c-1.2,0.5-3.9,1.1-6.5,1.1C266.1,95,262.9,93.9,260.4,91.7z"/>
		<path class="st2" d="M282.4,82.3c0-3.8-0.1-6.7-0.3-7.6c0.5,0.1,0.9,0.1,1.4,0.1c0.5,0,2.7-0.1,3.7-0.1c2,0,3.7,0.2,4.9,1
			c1.4,0.8,2.4,2.4,2.4,4.3c0,2.3-1.1,4.1-3.3,5.6c1.7,2.2,3.7,4.8,5.5,6.8c1.1,1.2,2,1.9,2.5,2.1c-0.3,0.2-1.2,0.2-1.9,0.2
			c-1.4,0-2-0.3-3.1-1.4c-1.5-1.5-4-5.1-5.2-6.7c-0.1-0.1-0.2-0.2-0.4-0.2h-3.6c-0.1,0-0.1,0-0.1,0.1v0.8c0,3.3,0.1,6.1,0.2,7.3
			c-0.2-0.1-0.8-0.1-1.3-0.1c-0.5,0-1.4,0-1.7,0.1c0.1-1,0.2-4.2,0.2-7.7V82.3z M284.9,84.4c0,0.2,0,0.2,0.1,0.2
			c0.5,0.1,1.9,0.2,3.3,0.2c0.8,0,1.2-0.1,1.5-0.3c1.1-0.7,2-2.1,2-3.9c0-2.8-1.9-4.5-4.9-4.5c-0.8,0-1.6,0-2,0.1
			c-0.1,0-0.1,0.1-0.1,0.2V84.4z"/>
		<path class="st2" d="M302.1,74.8c0.8,0,1.5,0,1.9-0.1c-0.1,0.8-0.2,3.9-0.2,7.6v3.6c0,3.4,0.8,4.8,1.9,5.9
			c1.2,1.1,2.9,1.3,4.1,1.3c1.2,0,2.9-0.3,3.9-1.4c1.3-1.4,1.6-3.3,1.6-6.4v-3.1c0-3.8-0.2-6.6-0.3-7.6c0.3,0.1,0.9,0.1,1.2,0.1
			c0.7,0,1.3-0.1,1.4-0.1c-0.1,0.8-0.3,3.9-0.3,7.6v3c0,3.1-0.3,6-2.6,8c-1.6,1.4-3.8,1.6-5.6,1.6c-2,0-4.2-0.4-5.7-1.8
			c-1.3-1.2-2.3-2.9-2.3-6.7v-4.2c0-3.8-0.2-6.9-0.3-7.6C301.1,74.8,301.6,74.8,302.1,74.8z"/>
		<path class="st2" d="M324.1,82.3c0-3.8-0.1-6.9-0.3-7.6c0.3,0,0.9,0,1.3,0c0.9,0,1.5-0.1,1.8-0.1c-0.1,1-0.2,3.9-0.2,7.6v4.7
			c0,3.3,0.1,6.9,0.2,7.6c-0.2,0-0.8-0.1-1.3-0.1c-0.6,0-1.5,0.1-1.7,0.1c0.1-0.9,0.2-4.2,0.2-7.7V82.3z"/>
		<path class="st2" d="M332.2,91.1c0.8,1,2.5,2.1,4.6,2.1c2.5,0,3.8-1.5,3.8-3.4c0-1.6-0.6-2.6-2.9-4.1l-1.4-0.9
			c-2.9-1.9-3.6-3.6-3.6-5.5c0-2.8,2.2-5.1,6-5.1c1.1,0,2,0.1,2.7,0.2c0.7,0.1,1.2,0.2,1.4,0.2c-0.1,0.3-0.2,1.7-0.2,2.7
			c-0.5-0.6-1.8-1.5-4-1.5c-2,0-3.4,1.1-3.4,2.9c0,1.4,0.3,2.3,2.8,3.9l1.3,0.8c3.3,2.1,3.9,3.7,3.9,5.7c0,1.2-0.6,3.3-2.5,4.6
			c-1.2,0.8-2.9,1.1-4.2,1.1c-1.8,0-3.6-0.5-4.5-1.1C332.1,93.4,332.3,91.9,332.2,91.1z"/>
		<path class="st2" d="M348.5,82.3c0-4.3-0.1-6.9-0.3-7.6c0.4,0.1,1.1,0.1,1.8,0.1h6.1c0.6,0,1.7,0,2.2-0.2
			c-0.1,0.5-0.2,1.4-0.2,2.4c-0.4-0.2-0.9-0.3-2.3-0.5c-0.9,0-2.5-0.1-4.7-0.1c0,0-0.1,0-0.1,0.1v6.6c0,0.1,0,0.2,0.1,0.2
			c0.4,0,3.5,0,4.3,0c1.5-0.1,2.1-0.1,2.4-0.2c-0.2,0.6-0.2,1.8-0.2,2.4c-0.4-0.2-0.8-0.3-1.9-0.4c-0.9-0.1-4.1-0.1-4.6-0.1
			c-0.1,0-0.1,0.1-0.1,0.1v1.8c0,5.1,0.1,5.8,0.2,6c0.1,0.1,0.3,0.1,0.6,0.2c0.7,0.1,1.5,0.1,2.7,0.1c2.5,0,3.8-0.2,4.6-0.5
			c-0.2,0.6-0.5,1.6-0.6,2.2c-0.1,0-0.4,0.1-1.4,0.1c-3.8,0-5.8-0.2-7-0.2c-0.8,0-1.5,0-1.9,0.1c0.1-0.9,0.2-3.9,0.2-7.6V82.3z"/>
		<path class="st2" d="M362.7,91.1c0.8,1,2.5,2.1,4.6,2.1c2.5,0,3.8-1.5,3.8-3.4c0-1.6-0.6-2.6-2.9-4.1l-1.4-0.9
			c-2.9-1.9-3.6-3.6-3.6-5.5c0-2.8,2.2-5.1,6-5.1c1.1,0,2,0.1,2.7,0.2c0.7,0.1,1.2,0.2,1.4,0.2c-0.1,0.3-0.2,1.7-0.2,2.7
			c-0.5-0.6-1.8-1.5-4-1.5c-2,0-3.4,1.1-3.4,2.9c0,1.4,0.3,2.3,2.8,3.9l1.3,0.8c3.3,2.1,3.9,3.7,3.9,5.7c0,1.2-0.6,3.3-2.5,4.6
			c-1.2,0.8-2.9,1.1-4.2,1.1c-1.8,0-3.6-0.5-4.5-1.1C362.6,93.4,362.8,91.9,362.7,91.1z"/>
	</g>
</g>
<g>
	<text transform="matrix(1 0 0 1 395.7148 95.6777)" class="st2 st3 st4">2</text>
</g>
</svg>
